<svg xmlns:xlink="http://www.w3.org/1999/xlink" xmlns="http://www.w3.org/2000/svg" width="205" height="37" viewBox="0 0 205 37" fill="none">
<path d="M96.1738 0.873044C96.4505 1.17468 96.6655 1.52846 96.8065 1.91413C96.9476 2.29979 97.0119 2.70976 96.9959 3.12057V26.1226C97.0165 26.5073 96.9597 26.8923 96.8287 27.2542C96.6977 27.616 96.4953 27.9473 96.2338 28.2279C95.969 28.4871 95.6547 28.6891 95.3099 28.8214C94.9652 28.9537 94.5974 29.0136 94.2289 28.9974C93.8667 29.0112 93.5055 28.95 93.1676 28.8177C92.8296 28.6854 92.522 28.4847 92.2636 28.2279C92.0021 27.9473 91.7998 27.6161 91.6689 27.2542C91.538 26.8923 91.4812 26.5073 91.502 26.1226V11.8275L85.8074 22.6398C85.5169 23.2377 85.0992 23.7634 84.5841 24.1793C84.119 24.4961 83.5708 24.6653 83.0098 24.6653C82.4488 24.6653 81.9006 24.4961 81.4355 24.1793C80.9096 23.7693 80.4841 23.2425 80.1923 22.6398L74.4985 12.0299V26.1226C74.5156 26.504 74.457 26.8851 74.3261 27.2433C74.1952 27.6015 73.9947 27.9297 73.7364 28.2086C73.1971 28.7127 72.4902 28.9944 71.7552 28.9982C71.0203 29.0019 70.3106 28.7274 69.7663 28.2288C69.5046 27.9483 69.3021 27.617 69.1711 27.2551C69.0401 26.8932 68.9833 26.5082 69.0042 26.1234V3.12057C68.9881 2.70975 69.0524 2.29975 69.1934 1.91407C69.3345 1.5284 69.5495 1.17463 69.8263 0.873044C70.103 0.583539 70.4373 0.35631 70.807 0.206231C71.1768 0.0561519 71.5738 -0.0133997 71.972 0.00212922C73.2552 0.00212922 74.231 0.690723 74.8993 2.06791L83.0405 17.6592L91.1408 2.06791C91.863 0.690436 92.8254 0.00184278 94.0281 0.00212922C94.4263 -0.0133452 94.8233 0.0562337 95.193 0.20631C95.5628 0.356386 95.897 0.583583 96.1738 0.873044Z" fill="#070A56"/>
<path d="M121.172 8.88638C121.448 9.15987 121.664 9.48972 121.806 9.85435C121.949 10.219 122.014 10.6102 121.998 11.0023V25.9974C122.014 26.3896 121.949 26.7808 121.806 27.1455C121.664 27.5102 121.448 27.8402 121.172 28.1137C120.552 28.6317 119.776 28.9148 118.975 28.9148C118.174 28.9148 117.398 28.6317 116.779 28.1137C116.503 27.8402 116.286 27.5103 116.144 27.1456C116.001 26.7809 115.936 26.3896 115.953 25.9974V25.6692C115.359 26.7125 114.485 27.5608 113.434 28.1137C112.296 28.7147 111.029 29.0182 109.747 28.9969C108.14 29.042 106.557 28.5994 105.197 27.7251C103.837 26.8508 102.763 25.5843 102.111 24.0864C101.342 22.3663 100.963 20.4914 101.003 18.6014C100.966 16.6984 101.345 14.8109 102.111 13.0754C102.78 11.5565 103.855 10.2606 105.214 9.33624C106.56 8.4415 108.138 7.97663 109.745 8.00106C111.027 7.97964 112.294 8.28327 113.432 8.88464C114.483 9.43782 115.357 10.286 115.951 11.3292V10.9221C115.932 10.5357 115.996 10.1499 116.139 9.79151C116.282 9.43312 116.499 9.11082 116.777 8.84715C117.388 8.31888 118.173 8.04726 118.973 8.08737C119.781 8.04664 120.571 8.33396 121.172 8.88638ZM114.804 22.7939C115.57 21.8079 115.953 20.3839 115.953 18.5221C115.953 16.6602 115.57 15.2289 114.804 14.2284C114.39 13.7533 113.881 13.3737 113.311 13.1151C112.742 12.8565 112.125 12.7247 111.501 12.7286C110.877 12.7324 110.262 12.8719 109.695 13.1376C109.129 13.4033 108.624 13.7891 108.216 14.2694C107.436 15.2964 107.047 16.7412 107.047 18.604C107.047 20.4392 107.437 21.8429 108.216 22.8153C108.618 23.3033 109.125 23.6892 109.699 23.9424C110.273 24.1955 110.896 24.309 111.52 24.2738C112.143 24.3097 112.766 24.1943 113.337 23.937C113.908 23.6797 114.411 23.288 114.804 22.7939Z" fill="#070A56"/>
<path d="M139.308 8.55192C139.547 8.78877 139.732 9.07543 139.85 9.39187C139.968 9.7083 140.017 10.0469 139.991 10.3841C140.019 10.7316 139.979 11.0813 139.871 11.4128C139.764 11.7443 139.592 12.0509 139.366 12.3148C138.95 12.7351 138.207 12.9977 137.14 13.1028L135.968 13.2207C134.535 13.3787 133.5 13.8516 132.862 14.6394C132.198 15.5049 131.859 16.5794 131.905 17.6729V25.197C131.932 25.5869 131.87 25.9778 131.724 26.34C131.579 26.7022 131.353 27.0261 131.065 27.2871C130.476 27.7705 129.734 28.0229 128.975 27.9977C128.204 28.0272 127.448 27.7748 126.846 27.2871C126.557 27.0262 126.332 26.7023 126.186 26.34C126.041 25.9778 125.979 25.5869 126.006 25.197V10.7406C125.985 10.3614 126.052 9.9824 126.201 9.63365C126.35 9.2849 126.578 8.97595 126.866 8.73125C127.45 8.25361 128.184 8.00166 128.936 8.02063C129.65 7.99652 130.347 8.24255 130.889 8.71034C131.152 8.95025 131.359 9.24618 131.494 9.57661C131.629 9.90705 131.689 10.2637 131.671 10.6206V11.6845C132.092 10.6134 132.837 9.70349 133.8 9.08405C134.734 8.48572 135.801 8.13356 136.905 8.05992L137.452 8.02063C137.781 7.97742 138.115 8.00224 138.434 8.09359C138.753 8.18493 139.051 8.34088 139.308 8.55192Z" fill="#070A56"/>
<path d="M161 26.0749C161 26.8335 160.712 27.5615 160.199 28.1021C159.969 28.3798 159.684 28.6032 159.364 28.7571C159.044 28.911 158.696 28.9918 158.343 28.9941C157.991 28.9873 157.645 28.9085 157.323 28.7624C157.001 28.6162 156.71 28.4056 156.467 28.1425L147.908 19.9125V26.1158C147.935 26.5169 147.873 26.9191 147.727 27.2918C147.582 27.6644 147.356 27.9978 147.068 28.2664C146.479 28.7637 145.736 29.0234 144.977 28.9976C144.205 29.0281 143.449 28.7684 142.847 28.2664C142.558 27.9979 142.332 27.6646 142.187 27.2919C142.041 26.9192 141.979 26.5169 142.006 26.1158V2.88425C141.979 2.48306 142.041 2.08079 142.187 1.7081C142.332 1.3354 142.558 1.00211 142.847 0.733621C143.449 0.23158 144.205 -0.0280775 144.977 0.00240956C145.736 -0.0234116 146.479 0.236282 147.068 0.733621C147.356 1.00225 147.582 1.33558 147.727 1.70825C147.873 2.08092 147.935 2.48311 147.908 2.88425V17.398L155.724 9.41183C155.965 9.13607 156.259 8.91462 156.586 8.76121C156.913 8.60781 157.267 8.52569 157.626 8.51997C157.985 8.51424 158.342 8.58502 158.673 8.72792C159.005 8.87083 159.305 9.08281 159.554 9.35075C159.815 9.60149 160.023 9.90583 160.164 10.2444C160.305 10.583 160.377 10.9483 160.375 11.3173C160.363 11.6943 160.276 12.0646 160.122 12.4061C159.967 12.7475 159.747 13.0528 159.476 13.3036L154.278 18.4526L160.101 24.0468C160.38 24.3006 160.604 24.6123 160.759 24.9617C160.914 25.3111 160.996 25.6904 161 26.0749Z" fill="#070A56"/>
<path d="M183.172 8.88638C183.448 9.15987 183.664 9.48972 183.806 9.85435C183.949 10.219 184.014 10.6102 183.998 11.0023V25.9974C184.014 26.3896 183.949 26.7808 183.806 27.1455C183.664 27.5102 183.448 27.8402 183.172 28.1137C182.552 28.6315 181.776 28.9144 180.976 28.9144C180.175 28.9144 179.399 28.6315 178.78 28.1137C178.503 27.8403 178.287 27.5104 178.144 27.1457C178.002 26.781 177.937 26.3896 177.953 25.9974V25.6692C177.36 26.7123 176.486 27.5605 175.435 28.1137C174.296 28.7147 173.029 29.0182 171.747 28.9969C170.14 29.042 168.556 28.5993 167.197 27.7251C165.837 26.8508 164.763 25.5843 164.111 24.0864C163.342 22.3662 162.963 20.4914 163.003 18.6014C162.966 16.6985 163.344 14.811 164.111 13.0754C164.78 11.5566 165.855 10.2607 167.214 9.33624C168.56 8.4415 170.138 7.97662 171.745 8.00106C173.027 7.97966 174.294 8.28328 175.433 8.88464C176.484 9.43798 177.358 10.2862 177.951 11.3292V10.9221C177.933 10.5357 177.997 10.1498 178.14 9.7914C178.282 9.43299 178.5 9.11072 178.778 8.84715C179.389 8.31875 180.174 8.04711 180.974 8.08737C181.781 8.04661 182.572 8.33394 183.172 8.88638ZM176.805 22.7939C177.57 21.8079 177.953 20.3839 177.953 18.5221C177.953 16.6602 177.57 15.2289 176.805 14.2284C176.39 13.7533 175.881 13.3737 175.312 13.1151C174.742 12.8565 174.125 12.7247 173.501 12.7286C172.878 12.7324 172.262 12.8719 171.696 13.1376C171.129 13.4033 170.625 13.7891 170.216 14.2694C169.436 15.2964 169.047 16.7412 169.048 18.604C169.048 20.4392 169.437 21.8429 170.216 22.8153C170.618 23.3033 171.126 23.6892 171.699 23.9424C172.273 24.1955 172.896 24.309 173.521 24.2738C174.144 24.3097 174.766 24.1943 175.337 23.937C175.908 23.6797 176.411 23.288 176.805 22.7939Z" fill="#070A56"/>
<path d="M205 26.7176C205 28.2385 204.074 28.9986 202.222 28.9981H188.984C188.616 29.012 188.248 28.9506 187.903 28.8176C187.559 28.6846 187.246 28.4828 186.983 28.2247C186.734 27.9883 186.537 27.7037 186.404 27.3885C186.27 27.0732 186.203 26.734 186.206 26.3918C186.202 26 186.275 25.6111 186.423 25.2477C186.57 24.8843 186.788 24.5536 187.064 24.2747L196.624 13.6049H188.779C186.926 13.6049 186 12.8448 186 11.3245C186 9.77681 186.926 9.00298 188.779 9.00298H201.526C201.898 8.98547 202.27 9.0452 202.618 9.1784C202.966 9.3116 203.283 9.51537 203.548 9.77681C203.793 10.0226 203.987 10.3151 204.117 10.637C204.247 10.9588 204.31 11.3034 204.304 11.6502C204.308 12.0421 204.235 12.431 204.088 12.7944C203.94 13.1578 203.722 13.4885 203.446 13.7674L193.927 24.3961H202.22C204.073 24.3964 205 25.1703 205 26.7176Z" fill="#070A56"/>
<path fill-rule="evenodd" clip-rule="evenodd" d="M23.5004 30C22.6386 30.0012 21.7852 29.8324 20.989 29.5033C20.1928 29.1742 19.4697 28.6913 18.8611 28.0824L1.9215 11.1771C0.691141 9.94922 -3.94234e-05 8.28383 0 6.54733C3.94268e-05 4.81083 0.69129 3.14547 1.9217 1.91761C3.15211 0.689746 4.8209 -3.93435e-05 6.56092 0C8.30095 3.93469e-05 9.96969 0.689896 11.2 1.91781L23.5004 14.1928L35.8003 1.91781C37.0306 0.689951 38.6994 0.000147227 40.4394 0.000147261C42.1793 0.000147296 43.8481 0.689958 45.0784 1.91782C46.3088 3.14568 47 4.81102 47 6.54748C47 8.28394 46.3088 9.94927 45.0784 11.1771L28.1376 28.0824C27.5292 28.6911 26.8064 29.1738 26.0107 29.5029C25.2149 29.832 24.3618 30.0009 23.5004 30ZM34 30.2203C34 32.0184 34.6848 33.7429 35.9038 35.0143C37.1228 36.2857 38.7761 37 40.5 37C42.2239 37 43.8772 36.2857 45.0962 35.0143C46.3152 33.7429 47 32.0184 47 30.2203V15L34 28.5593V30.2203ZM1.90381 35.0143C0.684822 33.7429 0 32.0184 0 30.2203V15L13 28.5589V30.2203C13 32.0184 12.3152 33.7429 11.0962 35.0143C9.87721 36.2857 8.22391 37 6.5 37C4.77609 37 3.12279 36.2857 1.90381 35.0143Z" fill="url(#paint0_linear_175_2930)"/>
<defs>
<linearGradient id="paint0_linear_175_2930" x1="2.57079e-07" y1="37" x2="52.7545" y2="12.2811" gradientUnits="userSpaceOnUse">
<stop stop-color="#02BC89"/>
<stop offset="0.5" stop-color="#04DA45"/>
<stop offset="1" stop-color="#85FC2E"/>
</linearGradient>
</defs>
</svg>